<svg width="25" height="25" viewBox="0 0 25 25" fill="none" xmlns="http://www.w3.org/2000/svg">
    <path fill-rule="evenodd" clip-rule="evenodd"
        d="M3.4301 4.47178C3.83689 4.06499 4.49644 4.06499 4.90324 4.47178L11.1532 10.7218C11.56 11.1286 11.56 11.7881 11.1532 12.1949L4.90324 18.4449C4.49644 18.8517 3.83689 18.8517 3.4301 18.4449C3.0233 18.0381 3.0233 17.3786 3.4301 16.9718L8.94353 11.4584L3.4301 5.94492C3.0233 5.53813 3.0233 4.87858 3.4301 4.47178Z"
        fill="#6A6A6A" />
    <path fill-rule="evenodd" clip-rule="evenodd"
        d="M11.4585 19.7917C11.4585 19.2164 11.9249 18.75 12.5002 18.75H20.8335C21.4088 18.75 21.8752 19.2164 21.8752 19.7917C21.8752 20.367 21.4088 20.8333 20.8335 20.8333H12.5002C11.9249 20.8333 11.4585 20.367 11.4585 19.7917Z"
        fill="#6A6A6A" />
</svg>
    