<svg width="22" height="24" viewBox="0 0 22 24" fill="none" xmlns="http://www.w3.org/2000/svg">
    <path d="M15.3651 24C14.7526 24 14.3443 23.5838 14.3443 22.9594V18.9011C14.4464 18.0686 14.1402 17.4442 13.6298 16.9239C13.3236 16.6117 13.2215 16.1955 13.4256 15.8833C13.5277 15.4671 13.936 15.259 14.2422 15.1549C17.2024 14.8427 19.9585 13.8021 19.9585 8.9113C19.9585 7.76664 19.5502 6.62198 18.7336 5.68544C18.4273 5.37326 18.4273 4.95702 18.5294 4.64484C18.8356 3.81236 18.8356 2.97988 18.6315 2.1474C18.1211 2.25146 17.3045 2.56364 15.9775 3.50018C15.7734 3.7083 15.4671 3.7083 15.1609 3.60424C13.0173 2.97988 10.6696 2.97988 8.52599 3.60424C8.21976 3.7083 7.91353 3.7083 7.6073 3.50018C6.38239 2.56364 5.46371 2.25146 4.95333 2.1474C4.74918 2.97988 4.74918 3.81236 5.05541 4.64484C5.15748 5.06108 5.15748 5.47732 4.85125 5.68544C4.03465 6.62198 3.62634 7.76664 3.62634 8.9113C3.62634 13.8021 6.38239 14.8427 9.34259 15.1549C9.7509 15.1549 10.0571 15.4671 10.1592 15.8833C10.2613 16.2996 10.1592 16.7158 9.95505 16.9239C9.44467 17.4442 9.24052 18.0686 9.24052 18.797V19.7335V19.8376V22.8553C9.24052 23.4797 8.83221 23.8959 8.21976 23.8959C7.6073 23.8959 7.199 23.4797 7.199 22.8553V21.0863C4.13672 21.6066 2.80974 19.8376 1.89105 18.6929C1.48275 18.1726 1.17652 17.7564 0.768219 17.6523C0.25784 17.5483 -0.150464 16.9239 0.0536879 16.4036C0.155764 15.8833 0.768219 15.4671 1.2786 15.6752C2.29936 15.9874 2.91181 16.7158 3.52427 17.4442C4.34087 18.5889 5.05541 19.4214 7.199 19.0051V18.9011C7.199 18.2767 7.30108 17.5483 7.50523 17.028C4.6471 16.4036 1.58483 14.5305 1.58483 9.01536C1.58483 7.45446 2.09521 5.99762 3.01389 4.85296C2.60558 3.39612 2.70766 2.04334 3.32012 0.69056C3.42219 0.37838 3.62634 0.17026 3.93257 0.0661999C4.34087 -0.0378601 5.66786 -0.24598 8.42391 1.52304C10.6696 1.00274 13.0173 1.00274 15.1609 1.52304C17.8149 -0.24598 19.244 -0.0378601 19.6523 0.0661999C19.9585 0.17026 20.1626 0.37838 20.2647 0.69056C20.7751 2.04334 20.8772 3.39612 20.5709 4.7489C21.4896 5.89356 22 7.3504 22 8.9113C22 14.8427 18.5294 16.4036 16.0796 17.028C16.2838 17.6523 16.3858 18.3808 16.3858 19.0051V22.9594C16.3858 23.5838 15.9775 24 15.3651 24Z" fill="#818181"/>
    </svg>
    