<svg width="29" height="28" viewBox="0 0 29 28" fill="none" xmlns="http://www.w3.org/2000/svg">
    <path fill-rule="evenodd" clip-rule="evenodd" d="M19.3335 10.5C17.7311 10.5 16.1944 11.1146 15.0614 12.2085C13.9284 13.3025 13.2918 14.7862 13.2918 16.3333V23.3333H15.7085V16.3333C15.7085 15.4051 16.0904 14.5148 16.7702 13.8584C17.4501 13.2021 18.3721 12.8333 19.3335 12.8333C20.2949 12.8333 21.2169 13.2021 21.8968 13.8584C22.5766 14.5148 22.9585 15.4051 22.9585 16.3333V23.3333H25.3752V16.3333C25.3752 14.7862 24.7386 13.3025 23.6056 12.2085C22.4726 11.1146 20.9358 10.5 19.3335 10.5ZM19.3335 8.16666C17.0902 8.16666 14.9388 9.02707 13.3526 10.5586C11.7663 12.0902 10.8752 14.1674 10.8752 16.3333V24.5C10.8752 25.1443 11.4162 25.6667 12.0835 25.6667H16.9168C17.5842 25.6667 18.1252 25.1443 18.1252 24.5V16.3333C18.1252 16.0239 18.2525 15.7272 18.4791 15.5084C18.7057 15.2896 19.013 15.1667 19.3335 15.1667C19.654 15.1667 19.9613 15.2896 20.1879 15.5084C20.4145 15.7272 20.5418 16.0239 20.5418 16.3333V24.5C20.5418 25.1443 21.0828 25.6667 21.7502 25.6667H26.5835C27.2508 25.6667 27.7918 25.1443 27.7918 24.5V16.3333C27.7918 14.1674 26.9007 12.0902 25.3144 10.5586C23.7282 9.02707 21.5768 8.16666 19.3335 8.16666Z" fill="#818181"/>
    <path fill-rule="evenodd" clip-rule="evenodd" d="M1.2085 10.5C1.2085 9.85566 1.74949 9.33332 2.41683 9.33332H7.25016C7.91751 9.33332 8.4585 9.85566 8.4585 10.5V24.5C8.4585 25.1443 7.91751 25.6667 7.25016 25.6667H2.41683C1.74949 25.6667 1.2085 25.1443 1.2085 24.5V10.5ZM3.62516 11.6667V23.3333H6.04183V11.6667H3.62516Z" fill="#818181"/>
    <path fill-rule="evenodd" clip-rule="evenodd" d="M4.8335 3.49999C4.16615 3.49999 3.62516 4.02232 3.62516 4.66666C3.62516 5.31099 4.16615 5.83332 4.8335 5.83332C5.50084 5.83332 6.04183 5.31099 6.04183 4.66666C6.04183 4.02232 5.50084 3.49999 4.8335 3.49999ZM1.2085 4.66666C1.2085 2.73366 2.83146 1.16666 4.8335 1.16666C6.83553 1.16666 8.4585 2.73366 8.4585 4.66666C8.4585 6.59965 6.83553 8.16666 4.8335 8.16666C2.83146 8.16666 1.2085 6.59965 1.2085 4.66666Z" fill="#818181"/>
    </svg>
    