<svg width="27" height="27" viewBox="0 0 27 27" fill="none" xmlns="http://www.w3.org/2000/svg">
    <path fill-rule="evenodd" clip-rule="evenodd" d="M4.5 5.625C3.88382 5.625 3.375 6.13382 3.375 6.75V20.25C3.375 20.8662 3.88382 21.375 4.5 21.375H22.5C23.1162 21.375 23.625 20.8662 23.625 20.25V6.75C23.625 6.13382 23.1162 5.625 22.5 5.625H4.5ZM1.125 6.75C1.125 4.89118 2.64118 3.375 4.5 3.375H22.5C24.3588 3.375 25.875 4.89118 25.875 6.75V20.25C25.875 22.1088 24.3588 23.625 22.5 23.625H4.5C2.64118 23.625 1.125 22.1088 1.125 20.25V6.75Z" fill="#818181"/>
    <path fill-rule="evenodd" clip-rule="evenodd" d="M1.32846 6.10486C1.68476 5.59585 2.38624 5.47207 2.89524 5.82837L13.5001 13.2518L24.105 5.82837C24.614 5.47207 25.3154 5.59585 25.6717 6.10486C26.028 6.61387 25.9042 7.31534 25.3952 7.67164L14.1452 15.5466C13.7579 15.8178 13.2423 15.8178 12.855 15.5466L1.60495 7.67164C1.09595 7.31534 0.972157 6.61387 1.32846 6.10486Z" fill="#818181"/>
    </svg>
    