<svg width="25" height="25" viewBox="0 0 25 25" fill="none" xmlns="http://www.w3.org/2000/svg">
    <path fill-rule="evenodd" clip-rule="evenodd" d="M11.458 4.05091C7.43093 4.05091 4.16634 7.22482 4.16634 11.14C4.16634 15.0552 7.43093 18.2292 11.458 18.2292C15.4851 18.2292 18.7497 15.0552 18.7497 11.14C18.7497 7.22482 15.4851 4.05091 11.458 4.05091ZM2.08301 11.14C2.08301 6.10619 6.28034 2.02545 11.458 2.02545C16.6357 2.02545 20.833 6.10619 20.833 11.14C20.833 16.1739 16.6357 20.2546 11.458 20.2546C6.28034 20.2546 2.08301 16.1739 2.08301 11.14Z" fill="#6A6A6A"/>
    <path fill-rule="evenodd" clip-rule="evenodd" d="M16.6069 16.1459C17.0137 15.7504 17.6732 15.7504 18.08 16.1459L22.6112 20.5512C23.018 20.9467 23.018 21.588 22.6112 21.9835C22.2044 22.379 21.5449 22.379 21.1381 21.9835L16.6069 17.5781C16.2001 17.1826 16.2001 16.5414 16.6069 16.1459Z" fill="#6A6A6A"/>
    </svg>
    