<svg width="31" height="26" viewBox="0 0 31 26" fill="none" xmlns="http://www.w3.org/2000/svg">
    <path fill-rule="evenodd" clip-rule="evenodd" d="M3.87516 15.1667C4.58853 15.1667 5.16683 15.6517 5.16683 16.25V20.5833C5.16683 20.8706 5.30292 21.1462 5.54515 21.3494C5.78738 21.5525 6.11593 21.6667 6.4585 21.6667H24.5418C24.8844 21.6667 25.2129 21.5525 25.4552 21.3494C25.6974 21.1462 25.8335 20.8706 25.8335 20.5833V16.25C25.8335 15.6517 26.4118 15.1667 27.1252 15.1667C27.8385 15.1667 28.4168 15.6517 28.4168 16.25V20.5833C28.4168 21.4453 28.0086 22.2719 27.2819 22.8814C26.5552 23.4909 25.5695 23.8333 24.5418 23.8333H6.4585C5.43078 23.8333 4.44516 23.4909 3.71846 22.8814C2.99175 22.2719 2.5835 21.4453 2.5835 20.5833V16.25C2.5835 15.6517 3.16179 15.1667 3.87516 15.1667Z" fill="#818181"/>
    <path fill-rule="evenodd" clip-rule="evenodd" d="M14.5868 2.48397C15.0912 2.0609 15.9091 2.0609 16.4135 2.48397L22.8718 7.90063C23.3763 8.3237 23.3763 9.00963 22.8718 9.4327C22.3674 9.85576 21.5496 9.85576 21.0451 9.4327L15.5002 4.78206L9.95518 9.4327C9.45075 9.85576 8.63291 9.85576 8.12848 9.4327C7.62406 9.00963 7.62406 8.3237 8.12848 7.90063L14.5868 2.48397Z" fill="#818181"/>
    <path fill-rule="evenodd" clip-rule="evenodd" d="M15.5002 2.16666C16.2135 2.16666 16.7918 2.65169 16.7918 3.25V16.25C16.7918 16.8483 16.2135 17.3333 15.5002 17.3333C14.7868 17.3333 14.2085 16.8483 14.2085 16.25V3.25C14.2085 2.65169 14.7868 2.16666 15.5002 2.16666Z" fill="#818181"/>
    </svg>
    