<svg width="26" height="25" viewBox="0 0 26 25" fill="none" xmlns="http://www.w3.org/2000/svg">
    <path fill-rule="evenodd" clip-rule="evenodd" d="M4.8365 16.1088C5.85233 15.132 7.23008 14.5833 8.66667 14.5833H17.3333C18.7699 14.5833 20.1477 15.132 21.1635 16.1088C22.1793 17.0856 22.75 18.4103 22.75 19.7916V21.875C22.75 22.4503 22.265 22.9166 21.6667 22.9166C21.0684 22.9166 20.5833 22.4503 20.5833 21.875V19.7916C20.5833 18.9628 20.2409 18.168 19.6314 17.5819C19.0219 16.9959 18.1953 16.6666 17.3333 16.6666H8.66667C7.80471 16.6666 6.97806 16.9959 6.36857 17.5819C5.75908 18.168 5.41667 18.9628 5.41667 19.7916V21.875C5.41667 22.4503 4.93164 22.9166 4.33333 22.9166C3.73502 22.9166 3.25 22.4503 3.25 21.875V19.7916C3.25 18.4103 3.82068 17.0856 4.8365 16.1088Z" fill="#6A6A6A"/>
    <path fill-rule="evenodd" clip-rule="evenodd" d="M13.0002 4.16665C11.2052 4.16665 9.75016 5.56576 9.75016 7.29165C9.75016 9.01754 11.2052 10.4166 13.0002 10.4166C14.7951 10.4166 16.2502 9.01754 16.2502 7.29165C16.2502 5.56576 14.7951 4.16665 13.0002 4.16665ZM7.5835 7.29165C7.5835 4.41516 10.0086 2.08331 13.0002 2.08331C15.9917 2.08331 18.4168 4.41516 18.4168 7.29165C18.4168 10.1681 15.9917 12.5 13.0002 12.5C10.0086 12.5 7.5835 10.1681 7.5835 7.29165Z" fill="#6A6A6A"/>
    </svg>
    