<svg width="29" height="29" viewBox="0 0 29 29" fill="none" xmlns="http://www.w3.org/2000/svg">
    <path fill-rule="evenodd" clip-rule="evenodd" d="M22.6043 6.39558C23.0761 6.86747 23.0761 7.63254 22.6043 8.10443L8.10426 22.6044C7.63237 23.0763 6.8673 23.0763 6.39542 22.6044C5.92353 22.1325 5.92353 21.3675 6.39542 20.8956L20.8954 6.39558C21.3673 5.9237 22.1324 5.9237 22.6043 6.39558Z" fill="#818181"/>
    <path fill-rule="evenodd" clip-rule="evenodd" d="M6.39542 6.39558C6.8673 5.9237 7.63237 5.9237 8.10426 6.39558L22.6043 20.8956C23.0761 21.3675 23.0761 22.1325 22.6043 22.6044C22.1324 23.0763 21.3673 23.0763 20.8954 22.6044L6.39542 8.10443C5.92353 7.63254 5.92353 6.86747 6.39542 6.39558Z" fill="#818181"/>
    </svg>
    