<svg width="21" height="22" viewBox="0 0 21 22" fill="none" xmlns="http://www.w3.org/2000/svg">
<g clip-path="url(#clip0_651_852)">
<path d="M14.0001 21.0833C13.4751 21.0833 13.1251 20.7166 13.1251 20.1666V16.5916C13.2126 15.8583 12.9501 15.3083 12.5126 14.85C12.2501 14.575 12.1626 14.2083 12.3376 13.9333C12.4251 13.5666 12.7751 13.3833 13.0376 13.2916C15.5751 13.0166 17.9376 12.1 17.9376 7.79163C17.9376 6.7833 17.5876 5.77497 16.8876 4.94997C16.6251 4.67497 16.6251 4.3083 16.7126 4.0333C16.9751 3.29997 16.9751 2.56663 16.8001 1.8333C16.3626 1.92497 15.6626 2.19997 14.5251 3.02497C14.3501 3.2083 14.0876 3.2083 13.8251 3.11663C11.9876 2.56663 9.97512 2.56663 8.13762 3.11663C7.87512 3.2083 7.61262 3.2083 7.35012 3.02497C6.30012 2.19997 5.51262 1.92497 5.07512 1.8333C4.90012 2.56663 4.90012 3.29997 5.16262 4.0333C5.25012 4.39997 5.25012 4.76663 4.98762 4.94997C4.28762 5.77497 3.93762 6.7833 3.93762 7.79163C3.93762 12.1 6.30012 13.0166 8.83762 13.2916C9.18762 13.2916 9.45012 13.5666 9.53762 13.9333C9.62512 14.3 9.53762 14.6666 9.36262 14.85C8.92512 15.3083 8.75012 15.8583 8.75012 16.5V17.325V17.4166V20.075C8.75012 20.625 8.40012 20.9916 7.87512 20.9916C7.35012 20.9916 7.00012 20.625 7.00012 20.075V18.5166C4.37512 18.975 3.23762 17.4166 2.45012 16.4083C2.10012 15.95 1.83762 15.5833 1.48762 15.4916C1.05012 15.4 0.700123 14.85 0.875123 14.3916C0.962623 13.9333 1.48762 13.5666 1.92512 13.75C2.80012 14.025 3.32512 14.6666 3.85012 15.3083C4.55012 16.3166 5.16262 17.05 7.00012 16.6833V16.5916C7.00012 16.0416 7.08762 15.4 7.26262 14.9416C4.81262 14.3916 2.18762 12.7416 2.18762 7.8833C2.18762 6.5083 2.62512 5.22497 3.41262 4.21663C3.06262 2.9333 3.15012 1.74163 3.67512 0.549966C3.76262 0.274966 3.93762 0.0916327 4.20012 -3.39753e-05C4.55012 -0.0917006 5.68762 -0.275034 8.05012 1.2833C9.97512 0.824966 11.9876 0.824966 13.8251 1.2833C16.1001 -0.275034 17.3251 -0.0917006 17.6751 -3.39753e-05C17.9376 0.0916327 18.1126 0.274966 18.2001 0.549966C18.6376 1.74163 18.7251 2.9333 18.4626 4.12497C19.2501 5.1333 19.6876 6.41663 19.6876 7.79163C19.6876 13.0166 16.7126 14.3916 14.6126 14.9416C14.7876 15.4916 14.8751 16.1333 14.8751 16.6833V20.1666C14.8751 20.7166 14.5251 21.0833 14.0001 21.0833Z" fill="url(#paint0_linear_651_852)"/>
</g>
<defs>
<linearGradient id="paint0_linear_651_852" x1="10.2584" y1="-0.0583496" x2="10.2584" y2="21.0833" gradientUnits="userSpaceOnUse">
<stop stop-color="#D9D9D9"/>
<stop offset="1" stop-color="#1D3C60"/>
</linearGradient>
<clipPath id="clip0_651_852">
<rect width="21" height="22" fill="white"/>
</clipPath>
</defs>
</svg>
