<svg width="23" height="24" viewBox="0 0 23 24" fill="none" xmlns="http://www.w3.org/2000/svg">
<path fill-rule="evenodd" clip-rule="evenodd" d="M6.70801 3C4.59092 3 2.87467 4.79086 2.87467 7V17C2.87467 19.2091 4.59092 21 6.70801 21H16.2913C18.4084 21 20.1247 19.2091 20.1247 17V7C20.1247 4.79086 18.4084 3 16.2913 3H6.70801ZM0.958008 7C0.958008 3.68629 3.53237 1 6.70801 1H16.2913C19.467 1 22.0413 3.68629 22.0413 7V17C22.0413 20.3137 19.467 23 16.2913 23H6.70801C3.53237 23 0.958008 20.3137 0.958008 17V7Z" fill="url(#paint0_linear_651_856)"/>
<path fill-rule="evenodd" clip-rule="evenodd" d="M11.9634 8.98924C11.3652 8.89668 10.7543 9.0033 10.2175 9.29392C9.68077 9.58455 9.2455 10.0444 8.97362 10.608C8.70175 11.1717 8.60711 11.8104 8.70319 12.4334C8.79926 13.0564 9.08114 13.6319 9.50874 14.0781C9.93634 14.5243 10.4879 14.8184 11.0849 14.9187C11.682 15.0189 12.2941 14.9202 12.8342 14.6365C13.3744 14.3528 13.8151 13.8986 14.0936 13.3385C14.3721 12.7784 14.4743 12.1409 14.3856 11.5167C14.2951 10.88 14.0108 10.2906 13.5746 9.83547C13.1384 9.38034 12.5736 9.08366 11.9634 8.98924ZM9.33477 7.51868C10.2294 7.0343 11.2476 6.85661 12.2445 7.01087C13.2615 7.16823 14.2029 7.6627 14.9299 8.42126C15.6568 9.17981 16.1307 10.1622 16.2815 11.2234C16.4293 12.2637 16.2591 13.3261 15.7949 14.2596C15.3307 15.1931 14.5962 15.9501 13.696 16.423C12.7957 16.8958 11.7755 17.0604 10.7804 16.8933C9.78536 16.7262 8.86612 16.236 8.15345 15.4923C7.44079 14.7487 6.97098 13.7895 6.81086 12.7511C6.65074 11.7128 6.80846 10.6482 7.26159 9.70884C7.71471 8.76944 8.44017 8.00305 9.33477 7.51868Z" fill="url(#paint1_linear_651_856)"/>
<defs>
<linearGradient id="paint0_linear_651_856" x1="11.4997" y1="1" x2="11.4997" y2="23" gradientUnits="userSpaceOnUse">
<stop stop-color="#D9D9D9"/>
<stop offset="1" stop-color="#1D3C60"/>
</linearGradient>
<linearGradient id="paint1_linear_651_856" x1="11.5417" y1="6.95679" x2="11.5417" y2="16.9568" gradientUnits="userSpaceOnUse">
<stop stop-color="#D9D9D9"/>
<stop offset="1" stop-color="#1D3C60"/>
</linearGradient>
</defs>
</svg>
