<svg width="23" height="23" viewBox="0 0 23 23" fill="none" xmlns="http://www.w3.org/2000/svg">
<path fill-rule="evenodd" clip-rule="evenodd" d="M15.333 8.62492C14.0622 8.62492 12.8434 9.12975 11.9448 10.0284C11.0462 10.927 10.5413 12.1458 10.5413 13.4166V19.1666H12.458V13.4166C12.458 12.6541 12.7609 11.9228 13.3001 11.3837C13.8392 10.8445 14.5705 10.5416 15.333 10.5416C16.0955 10.5416 16.8268 10.8445 17.3659 11.3837C17.9051 11.9228 18.208 12.6541 18.208 13.4166V19.1666H20.1247V13.4166C20.1247 12.1458 19.6198 10.927 18.7212 10.0284C17.8226 9.12975 16.6038 8.62492 15.333 8.62492ZM15.333 6.70825C13.5538 6.70825 11.8476 7.41502 10.5895 8.67308C9.33144 9.93113 8.62467 11.6374 8.62467 13.4166V20.1249C8.62467 20.6542 9.05373 21.0833 9.58301 21.0833H13.4163C13.9456 21.0833 14.3747 20.6542 14.3747 20.1249V13.4166C14.3747 13.1624 14.4756 12.9187 14.6554 12.7389C14.8351 12.5592 15.0788 12.4583 15.333 12.4583C15.5872 12.4583 15.8309 12.5592 16.0107 12.7389C16.1904 12.9187 16.2913 13.1624 16.2913 13.4166V20.1249C16.2913 20.6542 16.7204 21.0833 17.2497 21.0833H21.083C21.6123 21.0833 22.0413 20.6542 22.0413 20.1249V13.4166C22.0413 11.6374 21.3346 9.93113 20.0765 8.67308C18.8185 7.41502 17.1122 6.70825 15.333 6.70825Z" fill="url(#paint0_linear_651_854)"/>
<path fill-rule="evenodd" clip-rule="evenodd" d="M0.958008 8.62492C0.958008 8.09565 1.38707 7.66659 1.91634 7.66659H5.74967C6.27895 7.66659 6.70801 8.09565 6.70801 8.62492V20.1249C6.70801 20.6542 6.27895 21.0833 5.74967 21.0833H1.91634C1.38707 21.0833 0.958008 20.6542 0.958008 20.1249V8.62492ZM2.87467 9.58325V19.1666H4.79134V9.58325H2.87467Z" fill="url(#paint1_linear_651_854)"/>
<path fill-rule="evenodd" clip-rule="evenodd" d="M3.83301 2.87492C3.30373 2.87492 2.87467 3.30398 2.87467 3.83325C2.87467 4.36252 3.30373 4.79159 3.83301 4.79159C4.36228 4.79159 4.79134 4.36252 4.79134 3.83325C4.79134 3.30398 4.36228 2.87492 3.83301 2.87492ZM0.958008 3.83325C0.958008 2.24543 2.24519 0.958252 3.83301 0.958252C5.42083 0.958252 6.70801 2.24543 6.70801 3.83325C6.70801 5.42107 5.42083 6.70825 3.83301 6.70825C2.24519 6.70825 0.958008 5.42107 0.958008 3.83325Z" fill="url(#paint2_linear_651_854)"/>
<defs>
<linearGradient id="paint0_linear_651_854" x1="11.4997" y1="0.958252" x2="11.4997" y2="21.0833" gradientUnits="userSpaceOnUse">
<stop stop-color="#D9D9D9"/>
<stop offset="1" stop-color="#1D3C60"/>
</linearGradient>
<linearGradient id="paint1_linear_651_854" x1="11.4997" y1="0.958252" x2="11.4997" y2="21.0833" gradientUnits="userSpaceOnUse">
<stop stop-color="#D9D9D9"/>
<stop offset="1" stop-color="#1D3C60"/>
</linearGradient>
<linearGradient id="paint2_linear_651_854" x1="11.4997" y1="0.958252" x2="11.4997" y2="21.0833" gradientUnits="userSpaceOnUse">
<stop stop-color="#D9D9D9"/>
<stop offset="1" stop-color="#1D3C60"/>
</linearGradient>
</defs>
</svg>
