<svg width="23" height="23" viewBox="0 0 23 23" fill="none" xmlns="http://www.w3.org/2000/svg">
    <path fill-rule="evenodd" clip-rule="evenodd" d="M3.83301 4.79167C3.30811 4.79167 2.87467 5.22511 2.87467 5.75V17.25C2.87467 17.7749 3.30811 18.2083 3.83301 18.2083H19.1663C19.6912 18.2083 20.1247 17.7749 20.1247 17.25V5.75C20.1247 5.22511 19.6912 4.79167 19.1663 4.79167H3.83301ZM0.958008 5.75C0.958008 4.16656 2.24957 2.875 3.83301 2.875H19.1663C20.7498 2.875 22.0413 4.16656 22.0413 5.75V17.25C22.0413 18.8334 20.7498 20.125 19.1663 20.125H3.83301C2.24957 20.125 0.958008 18.8334 0.958008 17.25V5.75Z" fill="url(#paint0_linear_723_784)"/>
    <path fill-rule="evenodd" clip-rule="evenodd" d="M1.13133 5.20035C1.43484 4.76675 2.03239 4.6613 2.46599 4.96482L11.4998 11.2885L20.5335 4.96482C20.9671 4.6613 21.5647 4.76675 21.8682 5.20035C22.1717 5.63395 22.0663 6.2315 21.6327 6.53502L12.0493 13.2433C11.7194 13.4743 11.2802 13.4743 10.9502 13.2433L1.36686 6.53502C0.933258 6.2315 0.827808 5.63395 1.13133 5.20035Z" fill="url(#paint1_linear_723_784)"/>
    <defs>
    <linearGradient id="paint0_linear_723_784" x1="11.4997" y1="2.875" x2="11.4997" y2="20.125" gradientUnits="userSpaceOnUse">
    <stop offset="0.471" stop-color="#D9D9D9"/>
    <stop offset="1" stop-color="#234974"/>
    </linearGradient>
    <linearGradient id="paint1_linear_723_784" x1="11.4998" y1="4.7915" x2="11.4998" y2="13.4166" gradientUnits="userSpaceOnUse">
    <stop offset="0.471" stop-color="#D9D9D9"/>
    <stop offset="1" stop-color="#234974"/>
    </linearGradient>
    </defs>
</svg>
    