<svg width="21" height="22" viewBox="0 0 21 22" fill="none" xmlns="http://www.w3.org/2000/svg">
<path fill-rule="evenodd" clip-rule="evenodd" d="M16.3687 4.85174C16.7104 5.20972 16.7104 5.79012 16.3687 6.1481L5.86872 17.1481C5.52701 17.5061 4.97299 17.5061 4.63128 17.1481C4.28957 16.7901 4.28957 16.2097 4.63128 15.8517L15.1313 4.85174C15.473 4.49376 16.027 4.49376 16.3687 4.85174Z" fill="url(#paint0_linear_651_849)"/>
<path fill-rule="evenodd" clip-rule="evenodd" d="M4.63128 4.85174C4.97299 4.49376 5.52701 4.49376 5.86872 4.85174L16.3687 15.8517C16.7104 16.2097 16.7104 16.7901 16.3687 17.1481C16.027 17.5061 15.473 17.5061 15.1313 17.1481L4.63128 6.1481C4.28957 5.79012 4.28957 5.20972 4.63128 4.85174Z" fill="url(#paint1_linear_651_849)"/>
<defs>
<linearGradient id="paint0_linear_651_849" x1="10.5" y1="4.58325" x2="10.5" y2="17.4166" gradientUnits="userSpaceOnUse">
<stop stop-color="#D9D9D9"/>
<stop offset="1" stop-color="#1D3C60"/>
</linearGradient>
<linearGradient id="paint1_linear_651_849" x1="10.5" y1="4.58325" x2="10.5" y2="17.4166" gradientUnits="userSpaceOnUse">
<stop stop-color="#D9D9D9"/>
<stop offset="1" stop-color="#1D3C60"/>
</linearGradient>
</defs>
</svg>
